<svg id="visual" viewBox="0 0 960 540" width="960" height="540" xmlns="http://www.w3.org/2000/svg" xmlns:xlink="http://www.w3.org/1999/xlink" version="1.1"><g stroke-width="4" stroke-linejoin="bevel"><path d="M533.3 285L548.3 356L655 325Z" fill="#00101c" stroke="#9e7253"></path><path d="M655 325L671 291L533.3 285Z" fill="#994f4e" stroke="#9e7253"></path><path d="M437.7 415L562.3 439L548.3 356Z" fill="#994f4e" stroke="#9e7253"></path><path d="M548.3 356L562.3 439L655 325Z" fill="#0f1a2a" stroke="#9e7253"></path><path d="M651 170L528.3 184L533.3 285Z" fill="#332843" stroke="#9e7253"></path><path d="M671 291L651 170L533.3 285Z" fill="#5f3551" stroke="#9e7253"></path><path d="M655 325L750.7 344L671 291Z" fill="#332843" stroke="#9e7253"></path><path d="M671 291L748.7 204L651 170Z" fill="#0f1a2a" stroke="#9e7253"></path><path d="M714.7 467L750.7 344L655 325Z" fill="#492f4c" stroke="#9e7253"></path><path d="M401.7 233L425.7 373L533.3 285Z" fill="#202137" stroke="#9e7253"></path><path d="M533.3 285L425.7 373L548.3 356Z" fill="#a65d48" stroke="#9e7253"></path><path d="M562.3 439L658 480L655 325Z" fill="#00101c" stroke="#9e7253"></path><path d="M425.7 373L437.7 415L548.3 356Z" fill="#884451" stroke="#9e7253"></path><path d="M562.3 439L649 540L658 480Z" fill="#202137" stroke="#9e7253"></path><path d="M780.7 268L748.7 204L671 291Z" fill="#ae6d43" stroke="#9e7253"></path><path d="M651 170L560.3 120L528.3 184Z" fill="#202137" stroke="#9e7253"></path><path d="M414.7 204L401.7 233L533.3 285Z" fill="#753c53" stroke="#9e7253"></path><path d="M610 96L560.3 120L651 170Z" fill="#ae6d43" stroke="#9e7253"></path><path d="M750.7 344L780.7 268L671 291Z" fill="#00101c" stroke="#9e7253"></path><path d="M658 480L714.7 467L655 325Z" fill="#332843" stroke="#9e7253"></path><path d="M750.7 344L857.3 376L780.7 268Z" fill="#0f1a2a" stroke="#9e7253"></path><path d="M414.7 204L533.3 285L528.3 184Z" fill="#332843" stroke="#9e7253"></path><path d="M395.7 64L414.7 204L528.3 184Z" fill="#884451" stroke="#9e7253"></path><path d="M741.7 102L610 96L651 170Z" fill="#492f4c" stroke="#9e7253"></path><path d="M534.3 540L649 540L562.3 439Z" fill="#332843" stroke="#9e7253"></path><path d="M658 480L649 540L714.7 467Z" fill="#a65d48" stroke="#9e7253"></path><path d="M437.7 415L534.3 540L562.3 439Z" fill="#332843" stroke="#9e7253"></path><path d="M308 195L354 257L401.7 233Z" fill="#5f3551" stroke="#9e7253"></path><path d="M401.7 233L354 257L425.7 373Z" fill="#0f1a2a" stroke="#9e7253"></path><path d="M425.7 373L350 482L437.7 415Z" fill="#884451" stroke="#9e7253"></path><path d="M848.3 161L741.7 102L748.7 204Z" fill="#332843" stroke="#9e7253"></path><path d="M748.7 204L741.7 102L651 170Z" fill="#994f4e" stroke="#9e7253"></path><path d="M354 257L330 348L425.7 373Z" fill="#202137" stroke="#9e7253"></path><path d="M437.7 415L429.7 540L534.3 540Z" fill="#a65d48" stroke="#9e7253"></path><path d="M714.7 467L857.3 376L750.7 344Z" fill="#994f4e" stroke="#9e7253"></path><path d="M780.7 268L848.3 161L748.7 204Z" fill="#0f1a2a" stroke="#9e7253"></path><path d="M889.3 465L857.3 376L714.7 467Z" fill="#00101c" stroke="#9e7253"></path><path d="M350 482L429.7 540L437.7 415Z" fill="#5f3551" stroke="#9e7253"></path><path d="M857.3 376L879.3 263L780.7 268Z" fill="#332843" stroke="#9e7253"></path><path d="M649 540L774.7 540L714.7 467Z" fill="#753c53" stroke="#9e7253"></path><path d="M879.3 263L848.3 161L780.7 268Z" fill="#753c53" stroke="#9e7253"></path><path d="M330 348L350 482L425.7 373Z" fill="#753c53" stroke="#9e7253"></path><path d="M414.7 204L308 195L401.7 233Z" fill="#0f1a2a" stroke="#9e7253"></path><path d="M354 257L247.3 322L330 348Z" fill="#884451" stroke="#9e7253"></path><path d="M395.7 64L308 195L414.7 204Z" fill="#753c53" stroke="#9e7253"></path><path d="M395.7 64L528.3 184L560.3 120Z" fill="#00101c" stroke="#9e7253"></path><path d="M741.7 102L622 0L610 96Z" fill="#ae6d43" stroke="#9e7253"></path><path d="M610 96L530.3 0L560.3 120Z" fill="#5f3551" stroke="#9e7253"></path><path d="M772.7 0L622 0L741.7 102Z" fill="#202137" stroke="#9e7253"></path><path d="M447.7 0L395.7 64L560.3 120Z" fill="#492f4c" stroke="#9e7253"></path><path d="M622 0L530.3 0L610 96Z" fill="#00101c" stroke="#9e7253"></path><path d="M774.7 540L821.3 540L714.7 467Z" fill="#5f3551" stroke="#9e7253"></path><path d="M350 482L353 540L429.7 540Z" fill="#753c53" stroke="#9e7253"></path><path d="M214.3 540L353 540L350 482Z" fill="#ae6d43" stroke="#9e7253"></path><path d="M214.3 425L350 482L330 348Z" fill="#492f4c" stroke="#9e7253"></path><path d="M821.3 540L889.3 465L714.7 467Z" fill="#884451" stroke="#9e7253"></path><path d="M857.3 376L960 324L879.3 263Z" fill="#202137" stroke="#9e7253"></path><path d="M960 113L837.3 76L848.3 161Z" fill="#5f3551" stroke="#9e7253"></path><path d="M848.3 161L837.3 76L741.7 102Z" fill="#202137" stroke="#9e7253"></path><path d="M530.3 0L447.7 0L560.3 120Z" fill="#a65d48" stroke="#9e7253"></path><path d="M239.3 254L247.3 322L354 257Z" fill="#884451" stroke="#9e7253"></path><path d="M214.3 140L239.3 254L308 195Z" fill="#5f3551" stroke="#9e7253"></path><path d="M308 195L239.3 254L354 257Z" fill="#a65d48" stroke="#9e7253"></path><path d="M333 56L308 195L395.7 64Z" fill="#884451" stroke="#9e7253"></path><path d="M837.3 76L772.7 0L741.7 102Z" fill="#492f4c" stroke="#9e7253"></path><path d="M319 0L333 56L395.7 64Z" fill="#0f1a2a" stroke="#9e7253"></path><path d="M960 465L960 324L857.3 376Z" fill="#492f4c" stroke="#9e7253"></path><path d="M879.3 263L960 194L848.3 161Z" fill="#994f4e" stroke="#9e7253"></path><path d="M960 324L960 233L879.3 263Z" fill="#0f1a2a" stroke="#9e7253"></path><path d="M960 233L960 194L879.3 263Z" fill="#202137" stroke="#9e7253"></path><path d="M837.3 76L877.3 0L772.7 0Z" fill="#5f3551" stroke="#9e7253"></path><path d="M75.7 329L214.3 425L247.3 322Z" fill="#492f4c" stroke="#9e7253"></path><path d="M247.3 322L214.3 425L330 348Z" fill="#994f4e" stroke="#9e7253"></path><path d="M960 540L960 465L889.3 465Z" fill="#332843" stroke="#9e7253"></path><path d="M889.3 465L960 465L857.3 376Z" fill="#0f1a2a" stroke="#9e7253"></path><path d="M447.7 0L319 0L395.7 64Z" fill="#ae6d43" stroke="#9e7253"></path><path d="M333 56L214.3 140L308 195Z" fill="#202137" stroke="#9e7253"></path><path d="M176.3 69L214.3 140L333 56Z" fill="#00101c" stroke="#9e7253"></path><path d="M239.3 254L78.7 306L247.3 322Z" fill="#492f4c" stroke="#9e7253"></path><path d="M960 194L960 113L848.3 161Z" fill="#492f4c" stroke="#9e7253"></path><path d="M960 113L877.3 0L837.3 76Z" fill="#884451" stroke="#9e7253"></path><path d="M821.3 540L960 540L889.3 465Z" fill="#0f1a2a" stroke="#9e7253"></path><path d="M214.3 425L214.3 540L350 482Z" fill="#332843" stroke="#9e7253"></path><path d="M960 113L960 0L877.3 0Z" fill="#492f4c" stroke="#9e7253"></path><path d="M319 0L176.3 69L333 56Z" fill="#ae6d43" stroke="#9e7253"></path><path d="M214.3 140L128.7 166L239.3 254Z" fill="#0f1a2a" stroke="#9e7253"></path><path d="M214.3 425L145.7 540L214.3 540Z" fill="#5f3551" stroke="#9e7253"></path><path d="M176.3 69L128.7 166L214.3 140Z" fill="#5f3551" stroke="#9e7253"></path><path d="M106.7 484L145.7 540L214.3 425Z" fill="#a65d48" stroke="#9e7253"></path><path d="M176.3 69L141.7 54L128.7 166Z" fill="#5f3551" stroke="#9e7253"></path><path d="M319 0L184.3 0L176.3 69Z" fill="#202137" stroke="#9e7253"></path><path d="M0 322L78.7 306L0 263Z" fill="#00101c" stroke="#9e7253"></path><path d="M128.7 166L78.7 306L239.3 254Z" fill="#884451" stroke="#9e7253"></path><path d="M75.7 329L106.7 484L214.3 425Z" fill="#00101c" stroke="#9e7253"></path><path d="M78.7 306L75.7 329L247.3 322Z" fill="#202137" stroke="#9e7253"></path><path d="M184.3 0L141.7 54L176.3 69Z" fill="#00101c" stroke="#9e7253"></path><path d="M184.3 0L128.7 0L141.7 54Z" fill="#0f1a2a" stroke="#9e7253"></path><path d="M0 172L0 263L128.7 166Z" fill="#884451" stroke="#9e7253"></path><path d="M78.7 306L0 322L75.7 329Z" fill="#994f4e" stroke="#9e7253"></path><path d="M75.7 329L0 424L106.7 484Z" fill="#ae6d43" stroke="#9e7253"></path><path d="M0 263L78.7 306L128.7 166Z" fill="#202137" stroke="#9e7253"></path><path d="M0 172L128.7 166L0 91Z" fill="#00101c" stroke="#9e7253"></path><path d="M0 322L0 424L75.7 329Z" fill="#202137" stroke="#9e7253"></path><path d="M106.7 484L0 540L145.7 540Z" fill="#202137" stroke="#9e7253"></path><path d="M0 91L128.7 166L141.7 54Z" fill="#5f3551" stroke="#9e7253"></path><path d="M0 0L0 91L141.7 54Z" fill="#492f4c" stroke="#9e7253"></path><path d="M0 424L0 540L106.7 484Z" fill="#5f3551" stroke="#9e7253"></path><path d="M128.7 0L0 0L141.7 54Z" fill="#994f4e" stroke="#9e7253"></path></g></svg>