<svg width="924" height="266" viewBox="0 0 924 266" fill="none" xmlns="http://www.w3.org/2000/svg">
<path fill-rule="evenodd" clip-rule="evenodd" d="M413.061 10.205C389.092 66.88 372.562 132.97 369.402 184.75L368.715 196H366.007C357.604 196 362.354 96.729 373.568 38C375.58 27.46 375.276 27.281 371.871 37C358.016 76.545 348.069 135.883 347.985 179.5C347.971 186.543 346.917 191.368 345.697 189.971C344.788 188.93 332.948 125.29 330.446 108C327.586 88.231 327 85.787 327 93.629C327 101.691 324.891 140.443 324.426 140.907C323.396 141.938 322.731 139.578 321.864 131.813C316.921 87.544 313.876 62.549 313.367 62.073C313.031 61.758 313.005 77.25 313.309 96.5C313.835 129.719 315.149 150.22 318.51 177.663C321.285 200.321 320.293 198.626 314.556 170.911C310.142 149.587 306.446 128.356 303.532 107.576C302.689 101.568 301.947 96.393 301.882 96.076C301.535 94.389 300.21 102.265 300.043 107L299.85 112.5L296.585 103C291.27 87.535 277.62 58.047 276.359 59.308C275.732 59.935 278.265 72.666 286.146 108.5C296.473 155.458 303.593 194.074 302.183 195.483C301.899 195.768 298.926 196 295.576 196H289.486L287.72 179.75C283.631 142.111 275.243 102.521 266.772 80.881C262.407 69.73 262.41 70.222 266.932 105.833C272.327 148.311 272.168 152.179 265.991 128.768C261.747 112.685 261.409 114.216 263.429 140.354C265.669 169.343 265.359 170.414 259.696 153.25C248.868 120.438 244.019 67.465 248.785 34.077C249.446 29.444 249.846 25.513 249.673 25.34C249.116 24.783 239.157 58.062 235.56 72.5C229.614 96.37 226.753 115.929 223.896 152.25C222.404 171.207 221.821 171.754 220.139 155.765C217.063 126.522 210.547 95.8 205.057 84.657C202.904 80.287 202.165 79.371 202.511 81.5C206.451 105.714 204.322 147.359 197.374 182C193.304 202.289 192.072 200.384 194.013 176.804C197.109 139.205 196.877 93.461 193.49 73.94C191.342 61.565 183.792 40 181.606 40C181.408 40 181.265 52.487 181.288 67.75C181.337 100.907 179.629 119.947 174.333 145.25C169.476 168.456 161.972 105.4 165.2 68.5L165.9 60.5L162.011 68.5C156.069 80.723 147.861 113.602 143.912 141C142.493 150.842 140.995 153.657 141.011 146.45C141.05 128.424 149.764 74.567 159.024 35.125C160.22 30.032 161.028 25.695 160.82 25.487C159.004 23.671 137.844 85.368 130.978 112.5C128.612 121.85 126.387 129.839 126.035 130.253C125.682 130.667 124.823 124.592 124.125 116.753C121.918 91.948 118.078 74.117 111.581 58.5C108.513 51.126 108.512 51.187 111.125 80.591C114.049 113.49 114.042 143.114 111.107 159.471C106.198 186.827 104.167 175.353 103.591 117C103.382 95.825 102.904 76.475 102.528 74C100.053 57.678 91.245 24.764 90.196 27.912C89.983 28.552 90.52 35.47 91.39 43.287C94.975 75.502 95.304 111.059 92.072 116.836C91.616 117.651 88.664 110.632 84.503 98.836C73.58 67.872 72.65 70.455 81.009 108.541C89.982 149.424 90.89 162.434 85.989 179.894C81.508 195.854 81.112 194.89 81.102 168C81.09 136.884 79.132 122.731 72.743 107.581L70.322 101.84L70.411 133.67C70.53 176.374 67.628 196 61.193 196H57.704L58.353 186.75C61.627 140.07 59.18 103.716 50.784 74.276C48.055 64.705 47.415 65.615 46.609 80.22C46.235 86.974 45.498 98.35 44.97 105.5C44.441 112.65 43.351 128.175 42.546 140C41.742 151.825 40.54 169.263 39.875 178.75L38.666 196H35.461C31.787 196 31.964 196.592 29.92 177.5C28.132 160.796 29.822 124.846 33.6 99.25C35.492 86.43 31.071 95.54 26.606 113.663C24.076 123.928 21.826 132.507 21.605 132.728C21.176 133.157 19.413 127.956 16.018 116.25C11.499 100.669 11.073 106.562 14.599 135.886C16.324 150.24 16.993 159.683 16.591 164C16.258 167.575 15.425 176.125 14.74 183L13.496 195.5L6.748 195.796L0 196.091V231.047V266.002L462.25 265.751H924V231C924 189.5 958.612 195.122 898 197C867.633 198.436 870.383 197.687 872.457 183.359C877.786 146.535 889.36 119.612 911.686 92.105C922.507 78.773 922.349 79.164 915.435 82.849C892.298 95.181 875.302 121.103 864.358 160.75C861.826 169.921 859.006 175.243 860.383 168.25C860.681 166.738 861.203 163.25 861.543 160.5C866.773 118.217 879.834 88.459 905.604 60.118C910.232 55.028 910.91 53.894 908.953 54.514C901.864 56.762 887.873 68.019 878.477 79.035C874.639 83.534 867.74 90.152 863.144 93.744C846.53 106.728 836.857 122.483 827.246 152.217C820.346 173.564 820.366 173.552 820.733 156.25C821.3 129.543 823.772 111.733 831.039 82C836.064 61.444 840.213 41.879 839.663 41.33C836.118 37.785 818.596 90.674 813.931 119C813.252 123.125 812.322 126.92 811.865 127.433C809.951 129.582 809.796 126.442 811.338 116.767C813.856 100.967 827.005 12.979 826.965 12.195C826.945 11.813 822.874 21.4 817.918 33.5C795.819 87.449 791.381 108.543 790.307 164.75L789.709 196H787.355H785L785.004 171.75C785.01 133.799 787.028 113.427 794.621 74.642C798.875 52.917 798.82 52.821 791.242 68.741C776.347 100.035 770.476 127.482 769.296 171.341C768.958 183.904 768.356 193.579 767.958 192.841C764.379 186.202 752.333 119.849 749.743 92.5C749.586 90.85 748.893 94.675 748.202 101C744.993 130.382 745.694 131.822 737.856 79.765C736.636 71.66 735.441 65.225 735.202 65.465C732.046 68.621 731.417 100.548 734 126.5C736.062 147.217 736.631 167.694 735.07 165C732.783 161.051 726.391 127.724 723.563 105L722.256 94.5L722.128 113.793C721.984 135.55 723.605 153.002 728.063 177.684C729.678 186.628 731 194.431 731 195.023C731 195.702 728.876 195.989 725.25 195.8L719.5 195.5L719.283 178C718.767 136.349 715.598 69.068 714.218 70.449C713.822 70.844 705.086 154.896 705.022 158.917C705.01 159.696 704.77 160.103 704.489 159.822C703.954 159.287 701.539 101.882 700.5 65C699.741 38.065 699.323 35.917 696.899 46.5C691.548 69.858 687.841 100.322 686.007 136C682.434 205.505 682.766 203.107 679.152 185.5C672.176 151.512 669.346 99.22 673.552 82.002C674.674 77.409 673.02 80.595 670.423 88.027C664.721 104.347 661.174 132.586 662.514 151C663.45 163.876 662.553 162.226 656.394 139.752C653.493 129.163 651.096 121.625 651.068 123C651.04 124.375 651.905 136.3 652.99 149.5C655.236 176.827 655.155 175.488 654.523 174.856C654.26 174.594 652.003 164.506 649.507 152.439C635.422 84.342 624.926 43.89 616.083 23.608C612.183 14.664 612.318 16.018 619.459 57.5C627.415 103.713 626.889 115.111 615.173 150.5C611.415 161.854 611.385 159.584 614.945 133C616.529 121.175 617.708 111.381 617.564 111.235C616.919 110.58 608.953 129.221 607.396 135.032C601.253 157.944 604.028 117.462 610.893 84.004C613.223 72.653 613.062 72.224 609.071 79.157C597.362 99.495 587 148.031 587 182.536C587 186.504 586.715 191.176 586.366 192.919L585.732 196.088L579.616 195.794L573.5 195.5L573.806 183C574.57 151.875 578.833 128.266 592.315 80.5C599.943 53.473 599.937 54.176 592.441 65.5C581.297 82.336 575.426 96.411 569.08 121.5C566.61 131.264 553 194.036 553 195.663C553 195.913 552.631 195.89 552.181 195.612C550.255 194.422 556.531 152.514 565.002 110C567.796 95.975 572.314 72.575 575.041 58C577.768 43.425 580.261 30.376 580.581 29.002C581.891 23.376 579.66 28.655 572.947 47.067C565.338 67.938 558.724 89.263 553.891 108.5C547.195 135.157 546.602 135.966 545.62 119.791C544.344 98.786 541.237 82.159 535.332 64.741C530.676 51.01 530.555 51.323 532.476 72.146C535.849 108.72 535.533 136.192 531.438 162.25C527.591 186.734 524.574 164.829 524.518 112C524.47 67.069 524.169 64.628 515.501 38.823C511.896 28.09 511.126 26.472 511.541 30.5C516.175 75.506 516.799 89.898 514.859 106.964C513.474 119.145 512.856 119.402 510.571 108.75C506.479 89.669 498.262 70.672 501.595 88C509.451 128.835 510.972 143.597 509.181 161.649C508.021 173.341 504.667 189.733 503.118 191.282C502.681 191.719 502.534 184.01 502.793 174.15C503.476 148.134 500.897 126.282 495.28 110.5C491.55 100.017 490.642 100.017 491.371 110.5C493.773 145.058 493.149 162.423 488.711 184.5L486.5 195.5L482.34 195.803L478.181 196.106L477.449 188.303C475.902 171.81 478.239 145.168 483.331 121.25C484.062 117.813 484.597 115 484.518 115C484.439 115 481.056 119.05 477 124C458.608 146.447 468.416 114.614 488.102 87.967L495.097 78.5L484.293 89.55C473.104 100.995 462.761 115.215 456.873 127.25C452.898 135.375 452.162 135.64 452.714 128.75C454.196 110.23 463.785 86.992 479.417 64.035C482.213 59.929 484.902 55.915 485.394 55.116C488.744 49.671 447.66 84.78 440.683 93.325C435.803 99.302 435.638 99.259 433.526 91.456C431.219 82.937 430.735 83.713 432.087 93.76L433.176 101.852L426.554 111.074C414.671 127.623 409.846 138.032 403.992 159.75C399.386 176.84 398.598 175.641 399.396 152.75C400.748 113.963 403.997 85.221 413.544 27.585C415.997 12.782 417.859 0.526003 417.683 0.350003C417.507 0.174003 415.427 4.609 413.061 10.205Z" fill="#C3D42C"/>
</svg>
